<svg width="60" height="60" viewBox="0 0 60 60" fill="none" xmlns="http://www.w3.org/2000/svg">
<path fill-rule="evenodd" clip-rule="evenodd" d="M0.5 15.1963C0.5 7.18816 6.99187 0.696289 15 0.696289H45C53.0081 0.696289 59.5 7.18816 59.5 15.1963V45.1963C59.5 53.2044 53.0081 59.6963 45 59.6963H15C6.99187 59.6963 0.5 53.2044 0.5 45.1963V15.1963ZM15 5.69629C9.75329 5.69629 5.5 9.94958 5.5 15.1963V45.1963C5.5 50.443 9.75329 54.6963 15 54.6963H45C50.2467 54.6963 54.5 50.443 54.5 45.1963V15.1963C54.5 9.94958 50.2467 5.69629 45 5.69629H15Z" fill="#343a40"/>
<path fill-rule="evenodd" clip-rule="evenodd" d="M22.5 15.1963C22.5 12.711 24.5147 10.6963 27 10.6963H34C36.4853 10.6963 38.5 12.711 38.5 15.1963V45.1963C38.5 47.6816 36.4853 49.6963 34 49.6963H27C24.5147 49.6963 22.5 47.6816 22.5 45.1963V15.1963ZM27.5 15.6963V44.6963H33.5V15.6963H27.5Z" fill="#343a40"/>
<path fill-rule="evenodd" clip-rule="evenodd" d="M11.5 30.1963C11.5 27.711 13.5147 25.6963 16 25.6963H23C25.4853 25.6963 27.5 27.711 27.5 30.1963V45.1963C27.5 47.6816 25.4853 49.6963 23 49.6963H16C13.5147 49.6963 11.5 47.6816 11.5 45.1963V30.1963ZM16.5 30.6963V44.6963H22.5V30.6963H16.5Z" fill="#343a40"/>
<path fill-rule="evenodd" clip-rule="evenodd" d="M33.5 24.1963C33.5 21.711 35.5147 19.6963 38 19.6963H45C47.4853 19.6963 49.5 21.711 49.5 24.1963V45.1963C49.5 47.6816 47.4853 49.6963 45 49.6963H38C35.5147 49.6963 33.5 47.6816 33.5 45.1963V24.1963ZM38.5 24.6963V44.6963H44.5V24.6963H38.5Z" fill="#343a40"/>
</svg>
