<svg width="60" height="59" viewBox="0 0 60 59" fill="none" xmlns="http://www.w3.org/2000/svg">
<path fill-rule="evenodd" clip-rule="evenodd" d="M0.5 14.5C0.5 6.49187 6.99187 0 15 0H45C53.0081 0 59.5 6.49187 59.5 14.5V44.5C59.5 52.5081 53.0081 59 45 59H15C6.99187 59 0.5 52.5081 0.5 44.5V14.5ZM15 5C9.75329 5 5.5 9.25329 5.5 14.5V44.5C5.5 49.7467 9.75329 54 15 54H45C50.2467 54 54.5 49.7467 54.5 44.5V14.5C54.5 9.25329 50.2467 5 45 5H15Z" fill="#0966FF"/>
<path fill-rule="evenodd" clip-rule="evenodd" d="M30 13.5C31.3807 13.5 32.5 14.6193 32.5 16V41.5C32.5 42.8807 31.3807 44 30 44C28.6193 44 27.5 42.8807 27.5 41.5V16C27.5 14.6193 28.6193 13.5 30 13.5Z" fill="#0966FF"/>
<path fill-rule="evenodd" clip-rule="evenodd" d="M45.25 28.75C45.25 30.1307 44.1307 31.25 42.75 31.25L17.25 31.25C15.8693 31.25 14.75 30.1307 14.75 28.75C14.75 27.3693 15.8693 26.25 17.25 26.25L42.75 26.25C44.1307 26.25 45.25 27.3693 45.25 28.75Z" fill="#0966FF"/>
</svg>
