<svg width="58" height="61" viewBox="0 0 58 61" fill="#343a40" xmlns="http://www.w3.org/2000/svg">
<path fill-rule="evenodd" clip-rule="evenodd" d="M31.134 5.72582C29.8759 4.75806 28.1241 4.75806 26.866 5.72582L6.86601 21.1104C6.00471 21.773 5.5 22.798 5.5 23.8846V51.9302C5.5 53.8632 7.067 55.4302 9 55.4302H49C50.933 55.4302 52.5 53.8632 52.5 51.9302V23.8846C52.5 22.798 51.9953 21.773 51.134 21.1104L31.134 5.72582ZM23.8175 1.7627C26.8728 -0.587565 31.1272 -0.587566 34.1825 1.7627L54.1825 17.1473C56.2743 18.7563 57.5 21.2456 57.5 23.8846V51.9302C57.5 56.6246 53.6944 60.4302 49 60.4302H9C4.30558 60.4302 0.5 56.6246 0.5 51.9302V23.8846C0.5 21.2456 1.72573 18.7563 3.81746 17.1473L23.8175 1.7627Z" fill="#343a40"/>
<path fill-rule="evenodd" clip-rule="evenodd" d="M17.5 37.9302C17.5 34.3404 20.4101 31.4302 24 31.4302H33C36.5899 31.4302 39.5 34.3404 39.5 37.9302V57.9302H34.5V37.9302C34.5 37.1018 33.8284 36.4302 33 36.4302H24C23.1716 36.4302 22.5 37.1018 22.5 37.9302V57.9302H17.5V37.9302Z" fill="#343a40"/>
</svg>
