<svg width="61" height="61" viewBox="0 0 61 61" fill="none" xmlns="http://www.w3.org/2000/svg">
<path fill-rule="evenodd" clip-rule="evenodd" d="M0.5 30.6963C0.5 14.1277 13.9315 0.696289 30.5 0.696289C47.0685 0.696289 60.5 14.1277 60.5 30.6963C60.5 47.2648 47.0685 60.6963 30.5 60.6963C13.9315 60.6963 0.5 47.2648 0.5 30.6963ZM30.5 5.69629C16.6929 5.69629 5.5 16.8892 5.5 30.6963C5.5 44.5034 16.6929 55.6963 30.5 55.6963C44.3071 55.6963 55.5 44.5034 55.5 30.6963C55.5 16.8892 44.3071 5.69629 30.5 5.69629Z" fill="#363b81"/>
<path fill-rule="evenodd" clip-rule="evenodd" d="M11.5 52.863C11.5 45.5912 17.3949 39.6963 24.6667 39.6963H37.3333C44.6051 39.6963 50.5 45.5912 50.5 52.863H45.5C45.5 48.3526 41.8437 44.6963 37.3333 44.6963H24.6667C20.1563 44.6963 16.5 48.3526 16.5 52.863H11.5Z" fill="#363b81"/>
<path fill-rule="evenodd" clip-rule="evenodd" d="M31 15.6963C26.8579 15.6963 23.5 19.0542 23.5 23.1963C23.5 27.3384 26.8579 30.6963 31 30.6963C35.1421 30.6963 38.5 27.3384 38.5 23.1963C38.5 19.0542 35.1421 15.6963 31 15.6963ZM18.5 23.1963C18.5 16.2927 24.0964 10.6963 31 10.6963C37.9036 10.6963 43.5 16.2927 43.5 23.1963C43.5 30.0998 37.9036 35.6963 31 35.6963C24.0964 35.6963 18.5 30.0998 18.5 23.1963Z" fill="#363b81"/>
</svg>
