<svg width="30" height="31" viewBox="0 0 30 31" fill="none" xmlns="http://www.w3.org/2000/svg">
<g clip-path="url(#clip0_201_4507)">
<path d="M29.2554 26.2552L23.4796 20.4794C23.2189 20.2187 22.8655 20.0739 22.4948 20.0739H21.5505C23.1494 18.0289 24.0995 15.4567 24.0995 12.6587C24.0995 6.00233 18.7061 0.608917 12.0497 0.608917C5.39342 0.608917 0 6.00233 0 12.6587C0 19.315 5.39342 24.7084 12.0497 24.7084C14.8478 24.7084 17.42 23.7583 19.465 22.1594V23.1037C19.465 23.4745 19.6098 23.8278 19.8705 24.0885L25.6462 29.8643C26.1908 30.4088 27.0714 30.4088 27.6101 29.8643L29.2496 28.2248C29.7941 27.6803 29.7941 26.7997 29.2554 26.2552ZM12.0497 20.0739C7.95398 20.0739 4.63451 16.7602 4.63451 12.6587C4.63451 8.5629 7.94819 5.24343 12.0497 5.24343C16.1455 5.24343 19.465 8.55711 19.465 12.6587C19.465 16.7544 16.1513 20.0739 12.0497 20.0739Z" fill="black"/>
</g>
<defs>
<clipPath id="clip0_201_4507">
<rect width="29.6609" height="29.6609" fill="white" transform="translate(0 0.608887)"/>
</clipPath>
</defs>
</svg>
